<svg data-logo="logo" xmlns="http://www.w3.org/2000/svg" viewBox="0 0 247 43">
            <g style="opacity: 1;" id="logogram" transform="translate(0, 1) rotate(0)"><path fill-rule="evenodd" clip-rule="evenodd" d="M14.3966 6.66075L0.16687 20.7827C3.01308 23.6074 6.26443 25.988 9.80933 27.8505C10.7892 30.4299 12.325 32.8489 14.4169 34.9249C22.287 42.7353 35.0469 42.7353 42.9169 34.9249C45.0088 32.8489 46.5446 30.4299 47.5245 27.8503C51.0693 25.988 54.3207 23.6074 57.1669 20.7827L42.9486 6.67223C42.9381 6.66167 42.9276 6.65112 42.9169 6.64057C35.0469 -1.16991 22.287 -1.16991 14.4169 6.64057C14.4101 6.6473 14.4034 6.65402 14.3966 6.66075ZM41.5553 30.3983C37.4085 31.7872 33.0554 32.4985 28.6669 32.4985C24.2783 32.4985 19.9253 31.7872 15.7786 30.3983C16.2279 30.9899 16.7239 31.5576 17.2669 32.0965C23.5629 38.3449 33.7708 38.3449 40.0669 32.0965C40.6098 31.5576 41.106 30.9899 41.5553 30.3983ZM17.5591 9.18615C18.6283 9.88716 19.7652 10.487 20.9548 10.9761C23.3998 11.9812 26.0204 12.4985 28.6669 12.4985C31.3134 12.4985 33.934 11.9812 36.379 10.9761C37.5686 10.487 38.7054 9.88715 39.7747 9.18612C33.5572 3.3149 23.7766 3.31491 17.5591 9.18615Z" fill="#3B4158"></path></g>
            <g style="opacity: 1;" id="logotype" transform="translate(64, 8.5)"><path fill="#f4e7ee" d="M19.75 26L8.12 26L8.12 21.14L10.90 21.14L10.90 5.59L8.12 5.59L8.12 0.73L19.75 0.73L19.75 5.59L16.98 5.59L16.98 21.14L19.75 21.14L19.75 26ZM28.93 26L22.85 26L22.85 5.91L28.93 5.91L28.93 10.20Q29.36 8.79 30.34 7.78Q31.31 6.78 32.59 6.22Q33.86 5.66 35.23 5.66L35.23 5.66Q37.54 5.66 39.23 6.70Q40.92 7.75 41.86 9.66Q42.79 11.56 42.79 14.19L42.79 14.19L42.79 26L36.71 26L36.71 15.16Q36.71 13.11 35.66 11.92Q34.62 10.74 32.86 10.74L32.86 10.74Q31.67 10.74 30.79 11.37Q29.90 12.00 29.42 13.08Q28.93 14.16 28.93 15.52L28.93 15.52L28.93 26ZM54.42 26.25L54.42 26.25Q51.11 26.25 49.34 24.43Q47.58 22.62 47.58 19.16L47.58 19.16L47.58 10.84L44.38 10.84L44.38 5.91L57.66 5.91L57.66 10.84L53.66 10.84L53.66 19.23Q53.66 20.10 54.22 20.58Q54.78 21.07 55.57 21.07L55.57 21.07Q55.93 21.07 56.24 20.98Q56.54 20.89 56.83 20.71L56.83 20.71L58.34 25.17Q57.48 25.64 56.53 25.95Q55.57 26.25 54.42 26.25ZM51.40 5.91L45.96 7.53L45.96 5.91Q46.75 5.91 47.26 5.41Q47.76 4.90 47.76 4.11L47.76 4.11L47.76 1.02L53.66 1.02L53.66 3.18Q53.66 3.68 53.41 4.27Q53.16 4.87 52.64 5.32Q52.12 5.77 51.40 5.91L51.40 5.91ZM66.59 26L60.50 26L60.50 5.91L66.59 5.91L66.59 26ZM66.59 17.36L65.65 17.36L66.59 10.77Q67.24 8.43 68.86 7.08Q70.48 5.73 73.00 5.73L73.00 5.73L73.00 12.07Q72.60 12.00 72.24 11.96Q71.88 11.92 71.52 11.92L71.52 11.92Q70.19 11.92 69.07 12.55Q67.96 13.18 67.27 14.39Q66.59 15.60 66.59 17.36L66.59 17.36ZM88.33 22.94L88.33 22.94L88.33 5.91L94.42 5.91L94.42 26L91.39 26Q89.95 26 89.14 25.19Q88.33 24.38 88.33 22.94ZM82.18 26.25L82.18 26.25Q79.73 26.25 78.02 25.17Q76.31 24.09 75.41 22.15Q74.51 20.20 74.51 17.61L74.51 17.61L74.51 5.91L80.56 5.91L80.56 16.71Q80.56 18.80 81.62 19.95Q82.68 21.10 84.44 21.10L84.44 21.10Q85.67 21.10 86.53 20.49Q87.40 19.88 87.86 18.80Q88.33 17.72 88.33 16.35L88.33 16.35L89.16 17.40Q89.05 20.49 88.10 22.44Q87.14 24.38 85.60 25.32Q84.05 26.25 82.18 26.25ZM107.12 26.25L107.12 26.25Q104.42 26.25 102.30 25.33Q100.18 24.42 98.81 22.74Q97.44 21.07 96.97 18.84L96.97 18.84L102.91 17.50Q103.31 19.27 104.35 20.28Q105.40 21.28 106.87 21.28L106.87 21.28Q108.42 21.28 109.27 20.64Q110.11 19.99 110.11 18.91L110.11 18.91Q110.11 17.94 109.43 17.31Q108.74 16.68 107.63 16.24Q106.51 15.81 105.16 15.38Q103.81 14.95 102.46 14.41Q101.11 13.87 99.98 13.06Q98.84 12.25 98.16 11.02Q97.48 9.80 97.48 8.00L97.48 8.00Q97.48 5.62 98.63 3.93Q99.78 2.24 101.85 1.36Q103.92 0.48 106.66 0.48L106.66 0.48Q109.14 0.48 111.08 1.30Q113.03 2.13 114.25 3.59Q115.48 5.05 115.84 7.03L115.84 7.03L109.93 8.58Q109.64 7.03 108.74 6.22Q107.84 5.41 106.51 5.41L106.51 5.41Q105.72 5.41 105.07 5.68Q104.42 5.95 104.05 6.45Q103.67 6.96 103.67 7.71L103.67 7.71Q103.67 8.65 104.35 9.26Q105.04 9.87 106.19 10.32Q107.34 10.77 108.71 11.19Q110.08 11.60 111.43 12.14Q112.78 12.68 113.91 13.49Q115.04 14.30 115.75 15.51Q116.45 16.71 116.45 18.51L116.45 18.51Q116.45 20.64 115.24 22.38Q114.04 24.13 111.95 25.19Q109.86 26.25 107.12 26.25ZM127.82 26.25L127.82 26.25Q124.84 26.25 122.57 24.97Q120.30 23.70 119.02 21.39Q117.74 19.09 117.74 15.96L117.74 15.96Q117.74 12.86 119.00 10.56Q120.26 8.25 122.53 6.96Q124.80 5.66 127.82 5.66L127.82 5.66Q129.26 5.66 130.65 5.95Q132.04 6.24 133.28 6.94Q134.52 7.64 135.49 8.85Q136.46 10.05 137.04 11.89L137.04 11.89L131.17 13.76Q130.78 12.36 129.91 11.60Q129.05 10.84 127.72 10.84L127.72 10.84Q126.60 10.84 125.75 11.42Q124.91 12.00 124.44 13.13Q123.97 14.26 123.97 15.96L123.97 15.96Q123.97 17.58 124.44 18.75Q124.91 19.92 125.75 20.53Q126.60 21.14 127.72 21.14L127.72 21.14Q129.34 21.14 130.18 20.17Q131.03 19.20 131.28 17.79L131.28 17.79L137.33 19.23Q136.86 21.03 135.65 22.63Q134.45 24.24 132.50 25.24Q130.56 26.25 127.82 26.25ZM146.80 26.25L146.80 26.25Q144.17 26.25 142.21 24.88Q140.24 23.52 139.18 21.19Q138.12 18.87 138.12 15.96L138.12 15.96Q138.12 13.08 139.18 10.74Q140.24 8.40 142.21 7.03Q144.17 5.66 146.80 5.66L146.80 5.66Q149.10 5.66 150.81 6.90Q152.52 8.14 153.20 10.38L153.20 10.38L153.20 5.91L159.29 5.91L159.29 26L156.30 26Q154.86 26 154.03 25.19Q153.20 24.38 153.20 22.94L153.20 22.94L153.20 21.57Q152.52 23.77 150.81 25.01Q149.10 26.25 146.80 26.25ZM148.78 20.92L148.78 20.92Q149.96 20.92 150.97 20.35Q151.98 19.77 152.59 18.66Q153.20 17.54 153.20 15.96L153.20 15.96Q153.20 14.41 152.59 13.29Q151.98 12.18 150.97 11.56Q149.96 10.95 148.78 10.95L148.78 10.95Q147.55 10.95 146.54 11.56Q145.54 12.18 144.94 13.29Q144.35 14.41 144.35 15.96L144.35 15.96Q144.35 17.54 144.94 18.66Q145.54 19.77 146.56 20.35Q147.59 20.92 148.78 20.92ZM168.61 26L162.53 26L162.53 5.91L168.61 5.91L168.61 10.20Q169.04 8.79 170.02 7.78Q170.99 6.78 172.27 6.22Q173.54 5.66 174.91 5.66L174.91 5.66Q177.22 5.66 178.91 6.70Q180.60 7.75 181.54 9.66Q182.47 11.56 182.47 14.19L182.47 14.19L182.47 26L176.39 26L176.39 15.16Q176.39 13.11 175.34 11.92Q174.30 10.74 172.54 10.74L172.54 10.74Q171.35 10.74 170.47 11.37Q169.58 12.00 169.10 13.08Q168.61 14.16 168.61 15.52L168.61 15.52L168.61 26Z"></path></g>
            
          </svg>